<svg xmlns="http://www.w3.org/2000/svg" width="214.42000000000002" height="35" viewBox="0 0 214.42000000000002 35"><rect class="svg__rect" x="0" y="0" width="113.25" height="35" fill="#31C4F3"/><rect class="svg__rect" x="111.25" y="0" width="103.17000000000002" height="35" fill="#389AD5"/><path class="svg__text" d="M16.67 22L14.22 22L14.22 13.47L16.74 13.47Q17.87 13.47 18.74 13.97Q19.62 14.48 20.10 15.40Q20.58 16.33 20.58 17.52L20.58 17.52L20.58 17.95Q20.58 19.16 20.10 20.08Q19.61 21.00 18.72 21.50Q17.83 22 16.67 22L16.67 22ZM15.70 14.66L15.70 20.82L16.67 20.82Q17.83 20.82 18.46 20.09Q19.08 19.36 19.09 17.99L19.09 17.99L19.09 17.52Q19.09 16.13 18.49 15.40Q17.89 14.66 16.74 14.66L16.74 14.66L15.70 14.66ZM24.78 18.00L24.78 18.00L24.78 17.52Q24.78 16.28 25.22 15.32Q25.66 14.37 26.47 13.86Q27.27 13.35 28.31 13.35Q29.36 13.35 30.16 13.85Q30.97 14.35 31.41 15.29Q31.85 16.23 31.85 17.48L31.85 17.48L31.85 17.96Q31.85 19.21 31.42 20.16Q30.99 21.10 30.18 21.61Q29.38 22.12 28.33 22.12L28.33 22.12Q27.29 22.12 26.48 21.61Q25.67 21.10 25.22 20.17Q24.78 19.23 24.78 18.00ZM26.26 17.46L26.26 17.96Q26.26 19.36 26.81 20.13Q27.35 20.90 28.33 20.90L28.33 20.90Q29.31 20.90 29.84 20.15Q30.37 19.40 30.37 17.96L30.37 17.96L30.37 17.51Q30.37 16.09 29.84 15.34Q29.30 14.58 28.31 14.58L28.31 14.58Q27.35 14.58 26.81 15.33Q26.27 16.09 26.26 17.46L26.26 17.46ZM37.70 22L35.73 13.47L37.20 13.47L38.53 19.88L40.16 13.47L41.40 13.47L43.01 19.89L44.32 13.47L45.79 13.47L43.82 22L42.41 22L40.78 15.77L39.13 22L37.70 22ZM51.35 22L49.87 22L49.87 13.47L51.35 13.47L55.16 19.54L55.16 13.47L56.63 13.47L56.63 22L55.15 22L51.35 15.95L51.35 22ZM66.73 22L61.37 22L61.37 13.47L62.86 13.47L62.86 20.82L66.73 20.82L66.73 22ZM70.58 18.00L70.58 18.00L70.58 17.52Q70.58 16.28 71.03 15.32Q71.47 14.37 72.27 13.86Q73.08 13.35 74.12 13.35Q75.17 13.35 75.97 13.85Q76.78 14.35 77.22 15.29Q77.66 16.23 77.66 17.48L77.66 17.48L77.66 17.96Q77.66 19.21 77.23 20.16Q76.80 21.10 75.99 21.61Q75.18 22.12 74.14 22.12L74.14 22.12Q73.10 22.12 72.29 21.61Q71.47 21.10 71.03 20.17Q70.59 19.23 70.58 18.00ZM72.07 17.46L72.07 17.96Q72.07 19.36 72.61 20.13Q73.16 20.90 74.14 20.90L74.14 20.90Q75.12 20.90 75.65 20.15Q76.18 19.40 76.18 17.96L76.18 17.96L76.18 17.51Q76.18 16.09 75.64 15.34Q75.11 14.58 74.12 14.58L74.12 14.58Q73.16 14.58 72.62 15.33Q72.08 16.09 72.07 17.46L72.07 17.46ZM82.91 22L81.37 22L84.59 13.47L85.92 13.47L89.15 22L87.60 22L86.90 20.01L83.60 20.01L82.91 22ZM85.25 15.28L84.01 18.82L86.49 18.82L85.25 15.28ZM95.56 22L93.10 22L93.10 13.47L95.62 13.47Q96.75 13.47 97.63 13.97Q98.50 14.48 98.98 15.40Q99.47 16.33 99.47 17.52L99.47 17.52L99.47 17.95Q99.47 19.16 98.98 20.08Q98.50 21.00 97.60 21.50Q96.71 22 95.56 22L95.56 22ZM94.58 14.66L94.58 20.82L95.55 20.82Q96.72 20.82 97.34 20.09Q97.97 19.36 97.98 17.99L97.98 17.99L97.98 17.52Q97.98 16.13 97.37 15.40Q96.77 14.66 95.62 14.66L95.62 14.66L94.58 14.66Z" fill="#FFFFFF"/><path class="svg__text" d="M127.82 22L125.44 22L125.44 13.60L129.28 13.60Q130.42 13.60 131.26 13.98Q132.10 14.35 132.56 15.06Q133.01 15.76 133.01 16.71L133.01 16.71Q133.01 17.62 132.59 18.30Q132.16 18.98 131.37 19.36L131.37 19.36L133.18 22L130.64 22L129.11 19.77L127.82 19.77L127.82 22ZM127.82 15.47L127.82 17.93L129.14 17.93Q129.87 17.93 130.24 17.61Q130.61 17.29 130.61 16.71L130.61 16.71Q130.61 16.12 130.24 15.79Q129.87 15.47 129.14 15.47L129.14 15.47L127.82 15.47ZM144.55 22L137.80 22L137.80 13.60L144.39 13.60L144.39 15.44L140.16 15.44L140.16 16.85L143.89 16.85L143.89 18.63L140.16 18.63L140.16 20.17L144.55 20.17L144.55 22ZM155.74 22L149.35 22L149.35 13.60L151.73 13.60L151.73 20.11L155.74 20.11L155.74 22ZM166.90 22L160.15 22L160.15 13.60L166.75 13.60L166.75 15.44L162.51 15.44L162.51 16.85L166.24 16.85L166.24 18.63L162.51 18.63L162.51 20.17L166.90 20.17L166.90 22ZM173.12 22L170.70 22L174.40 13.60L176.75 13.60L180.46 22L178.00 22L177.33 20.37L173.78 20.37L173.12 22ZM175.56 15.93L174.47 18.61L176.64 18.61L175.56 15.93ZM184.03 21.24L184.03 21.24L184.81 19.49Q185.37 19.86 186.12 20.09Q186.86 20.32 187.58 20.32L187.58 20.32Q188.95 20.32 188.95 19.64L188.95 19.64Q188.95 19.28 188.56 19.11Q188.17 18.93 187.31 18.74L187.31 18.74Q186.36 18.53 185.72 18.30Q185.09 18.06 184.63 17.55Q184.18 17.03 184.18 16.16L184.18 16.16Q184.18 15.39 184.60 14.77Q185.02 14.15 185.85 13.79Q186.69 13.43 187.89 13.43L187.89 13.43Q188.72 13.43 189.52 13.62Q190.33 13.80 190.95 14.17L190.95 14.17L190.21 15.93Q189.01 15.28 187.88 15.28L187.88 15.28Q187.17 15.28 186.85 15.49Q186.53 15.70 186.53 16.04L186.53 16.04Q186.53 16.37 186.91 16.54Q187.30 16.71 188.14 16.89L188.14 16.89Q189.11 17.10 189.74 17.33Q190.37 17.56 190.83 18.07Q191.29 18.58 191.29 19.46L191.29 19.46Q191.29 20.21 190.87 20.83Q190.45 21.44 189.61 21.80Q188.77 22.17 187.57 22.17L187.57 22.17Q186.55 22.17 185.59 21.92Q184.63 21.67 184.03 21.24ZM202.61 22L195.87 22L195.87 13.60L202.46 13.60L202.46 15.44L198.22 15.44L198.22 16.85L201.96 16.85L201.96 18.63L198.22 18.63L198.22 20.17L202.61 20.17L202.61 22Z" fill="#FFFFFF" x="124.25"/></svg>